<svg width="112" height="67" viewBox="0 0 112 67" fill="none" xmlns="http://www.w3.org/2000/svg">
<path d="M5.31713 18.208C7.76513 18.208 9.30113 16.736 9.30113 14.88C9.30113 13.136 8.24513 12.336 6.88513 11.744L5.20513 11.024C4.29313 10.64 3.26913 10.208 3.26913 9.072C3.26913 8.016 4.13313 7.344 5.46113 7.344C6.54913 7.344 7.41313 7.776 8.13313 8.448L8.91713 7.504C8.08513 6.64 6.85313 6.048 5.46113 6.048C3.33313 6.048 1.76513 7.36 1.76513 9.168C1.76513 10.88 3.06113 11.712 4.14913 12.176L5.84513 12.912C6.94913 13.408 7.79713 13.792 7.79713 14.992C7.79713 16.144 6.86913 16.912 5.33313 16.912C4.11713 16.912 2.93313 16.336 2.10113 15.456L1.20513 16.464C2.22913 17.536 3.65313 18.208 5.31713 18.208ZM16.032 18.208C17.552 18.208 18.704 17.6 19.632 16.528L18.816 15.6C18.064 16.416 17.216 16.912 16.096 16.912C13.856 16.912 12.448 15.056 12.448 12.096C12.448 9.168 13.92 7.344 16.144 7.344C17.152 7.344 17.936 7.808 18.544 8.464L19.344 7.504C18.672 6.752 17.552 6.048 16.128 6.048C13.152 6.048 10.928 8.352 10.928 12.144C10.928 15.952 13.12 18.208 16.032 18.208ZM21.8031 18H23.2911V13.024H25.4031L28.2511 18H29.9311L26.9231 12.864C28.5231 12.48 29.5791 11.392 29.5791 9.568C29.5791 7.12 27.8671 6.256 25.4831 6.256H21.8031V18ZM23.2911 11.824V7.472H25.2591C27.0991 7.472 28.1071 8.016 28.1071 9.568C28.1071 11.088 27.0991 11.824 25.2591 11.824H23.2911ZM36.311 18.208C39.255 18.208 41.319 15.856 41.319 12.096C41.319 8.336 39.255 6.048 36.311 6.048C33.367 6.048 31.303 8.336 31.303 12.096C31.303 15.856 33.367 18.208 36.311 18.208ZM36.311 16.912C34.199 16.912 32.823 15.024 32.823 12.096C32.823 9.152 34.199 7.344 36.311 7.344C38.407 7.344 39.799 9.152 39.799 12.096C39.799 15.024 38.407 16.912 36.311 16.912ZM43.85 18H50.458V16.736H45.338V6.256H43.85V18ZM52.5375 18H59.1455V16.736H54.0255V6.256H52.5375V18ZM64.8031 18H67.8111C71.3471 18 73.2831 15.808 73.2831 12.096C73.2831 8.368 71.3471 6.256 67.7471 6.256H64.8031V18ZM66.2911 16.784V7.472H67.6191C70.3871 7.472 71.7471 9.12 71.7471 12.096C71.7471 15.056 70.3871 16.784 67.6191 16.784H66.2911ZM80.1235 18.208C83.0675 18.208 85.1315 15.856 85.1315 12.096C85.1315 8.336 83.0675 6.048 80.1235 6.048C77.1795 6.048 75.1155 8.336 75.1155 12.096C75.1155 15.856 77.1795 18.208 80.1235 18.208ZM80.1235 16.912C78.0115 16.912 76.6355 15.024 76.6355 12.096C76.6355 9.152 78.0115 7.344 80.1235 7.344C82.2195 7.344 83.6115 9.152 83.6115 12.096C83.6115 15.024 82.2195 16.912 80.1235 16.912ZM88.8491 18H90.6091L92.3531 10.928C92.5451 10 92.7531 9.152 92.9451 8.256H93.0091C93.2011 9.152 93.3771 10 93.5851 10.928L95.3611 18H97.1371L99.5691 6.256H98.1451L96.9131 12.656C96.6891 13.904 96.4651 15.168 96.2411 16.448H96.1611C95.8891 15.168 95.6171 13.904 95.3291 12.656L93.6971 6.256H92.3371L90.7211 12.656C90.4331 13.92 90.1451 15.184 89.8731 16.448H89.8091C89.5851 15.184 89.3451 13.92 89.1211 12.656L87.8891 6.256H86.3691L88.8491 18ZM101.6 18H103.008V11.84C103.008 10.608 102.896 9.36 102.832 8.176H102.896L104.16 10.592L108.432 18H109.952V6.256H108.544V12.368C108.544 13.584 108.656 14.896 108.736 16.08H108.656L107.408 13.664L103.136 6.256H101.6V18Z" fill="white"/>
<path fill-rule="evenodd" clip-rule="evenodd" d="M56.9999 34C56.9999 33.4477 56.5522 33 55.9999 33C55.4476 33 54.9999 33.4477 54.9999 34V41C54.9999 41.5523 55.4476 42 55.9999 42C56.5522 42 56.9999 41.5523 56.9999 41V34ZM48.0129 42C48.0129 40.4323 49.3754 38.5 51.4999 38.5C52.0522 38.5 52.4999 38.0523 52.4999 37.5C52.4999 36.9477 52.0522 36.5 51.4999 36.5C48.0452 36.5 46.0129 39.5677 46.0129 42V57.4701C45.9206 59.0678 46.3055 61.4227 47.7833 63.4093C49.3089 65.4604 51.9121 67 55.9999 67C60.0878 67 62.691 65.4604 64.2166 63.4093C65.6943 61.4227 66.0793 59.0678 65.987 57.4701V42.0015V42H64.987L65.987 42.0029L65.987 42.0015C65.9893 41.0916 65.7283 39.749 64.9077 38.6047C64.0498 37.4084 62.626 36.5 60.4999 36.5C59.9476 36.5 59.4999 36.9477 59.4999 37.5C59.4999 38.0523 59.9476 38.5 60.4999 38.5C61.9739 38.5 62.7957 39.0916 63.2824 39.7703C63.806 40.5004 63.9887 41.407 63.987 41.9971L63.987 42V57.5C63.987 57.5207 63.9876 57.5414 63.9889 57.5621C64.0657 58.7972 63.7586 60.674 62.6119 62.2157C61.5031 63.7063 59.5246 65 55.9999 65C52.4752 65 50.4968 63.7063 49.388 62.2157C48.2412 60.674 47.9341 58.7972 48.011 57.5621C48.0122 57.5414 48.0129 57.5207 48.0129 57.5V42ZM65.987 57.4701V57.5H64.987L65.985 57.4379L65.987 57.4701ZM46.0129 57.4701L46.0148 57.4379L47.0129 57.5H46.0129V57.4701Z" fill="white"/>
</svg>
